<?xml version="1.0" encoding="utf-8"?>
<!-- Generator: Adobe Illustrator 18.0.0, SVG Export Plug-In . SVG Version: 6.00 Build 0)  -->
<!DOCTYPE svg PUBLIC "-//W3C//DTD SVG 1.1 Basic//EN" "http://www.w3.org/Graphics/SVG/1.1/DTD/svg11-basic.dtd">
<svg version="1.1" baseProfile="basic" id="Layer_1"
	 xmlns="http://www.w3.org/2000/svg" xmlns:xlink="http://www.w3.org/1999/xlink" x="0px" y="0px" viewBox="0 0 422 32"
	 xml:space="preserve">
<g>
	<path fill="#040404" d="M0.4,31L14,0.4C14,0.2,14.3,0,14.5,0h0.1c0.2,0,0.4,0,0.6,0.3L28.6,31c0.1,0.3,0.1,0.5-0.4,0.5h-1.1
		c-0.3,0-0.5-0.2-0.6-0.4L22.9,23H6.1l-3.5,8.1c-0.1,0.2-0.3,0.4-0.6,0.4H0.7C0.4,31.5,0.3,31.3,0.4,31z M22.1,21.3L14.6,3.6h-0.1
		L6.9,21.3H22.1z"/>
	<path fill="#040404" d="M56.4,1.3c0-0.3,0.3-0.6,0.6-0.6h9.5c5.5,0,9.9,4.4,9.9,9.9c0,5.5-4.5,10-9.9,10h-8v10.4
		c0,0.3-0.3,0.6-0.7,0.6H57c-0.3,0-0.6-0.3-0.6-0.6V1.3z M66.4,18.5c4.3,0,8-3.6,8-8c0-4.3-3.7-7.7-8-7.7h-7.8v15.8H66.4z"/>
	<path fill="#040404" d="M105.4,1.3c0-0.3,0.3-0.6,0.6-0.6h9.5c5.5,0,9.9,4.4,9.9,9.9c0,5.5-4.5,10-9.9,10h-8v10.4
		c0,0.3-0.3,0.6-0.7,0.6H106c-0.3,0-0.6-0.3-0.6-0.6V1.3z M115.4,18.5c4.3,0,8-3.6,8-8c0-4.3-3.7-7.7-8-7.7h-7.8v15.8H115.4z"/>
	<path fill="#040404" d="M148.9,31l13.6-30.6c0.1-0.2,0.3-0.3,0.5-0.3h0.1c0.2,0,0.4,0,0.6,0.3L177.1,31c0.1,0.3,0.1,0.5-0.4,0.5
		h-1.1c-0.3,0-0.5-0.2-0.6-0.4l-3.6-8.1h-16.8l-3.5,8.1c-0.1,0.2-0.3,0.4-0.6,0.4h-1.2C148.9,31.5,148.7,31.3,148.9,31z M170.6,21.3
		l-7.5-17.7H163l-7.7,17.7H170.6z"/>
	<path fill="#040404" d="M204.9,1.3c0-0.3,0.2-0.6,0.6-0.6h10.9c5.4,0,9.8,4,9.8,9.4c0,4.4-3.1,8-7.3,9.2l6.4,11.4
		c0.2,0.4,0.1,0.8-0.3,0.8h-1.4c-0.3,0-0.5-0.1-0.6-0.4l-6.4-11.5c-0.6,0-1.1,0-1.6,0h-8.1v11.3c0,0.3-0.3,0.6-0.7,0.6h-0.8
		c-0.3,0-0.6-0.3-0.6-0.6V1.3z M216.3,17.8c4.2,0,7.8-3.3,7.8-7.7c0-4.2-3.6-7.4-7.8-7.4H207v15.1H216.3z"/>
	<path fill="#040404" d="M251.9,31l13.6-30.6c0.1-0.2,0.3-0.3,0.5-0.3h0.1c0.2,0,0.4,0,0.6,0.3L280.2,31c0.1,0.3,0.1,0.5-0.4,0.5
		h-1.1c-0.3,0-0.5-0.2-0.6-0.4l-3.6-8.1h-16.8l-3.5,8.1c-0.1,0.2-0.3,0.4-0.6,0.4h-1.2C251.9,31.5,251.8,31.3,251.9,31z M273.7,21.3
		l-7.5-17.7h-0.1l-7.7,17.7H273.7z"/>
	<path fill="#040404" d="M310.9,2.6h-8.4c-0.4,0-0.6-0.3-0.6-0.7V1.3c0-0.4,0.3-0.6,0.6-0.6h18.9c0.4,0,0.6,0.3,0.6,0.6V2
		c0,0.3-0.2,0.6-0.6,0.6H313v28.3c0,0.3-0.3,0.6-0.7,0.6h-0.8c-0.3,0-0.6-0.3-0.6-0.6V2.6z"/>
	<path fill="#040404" d="M349.5,1.3c0-0.3,0.3-0.6,0.6-0.6h0.9c0.3,0,0.6,0.3,0.6,0.6v18.8c0,5.7,3.6,9.9,9.4,9.9
		c5.9,0,9.5-4.1,9.5-9.8V1.3c0-0.4,0.2-0.6,0.6-0.6h0.9c0.3,0,0.6,0.3,0.6,0.6v19C372.6,27,368,32,361,32c-7,0-11.5-4.9-11.5-11.7
		V1.3z"/>
	<path fill="#040404" d="M402.6,27.4l0.4-0.5c0.3-0.4,0.6-0.5,1-0.2c0.4,0.4,3.7,3.4,8.1,3.4c4,0,7.4-2.7,7.4-5.9
		c0-3.9-3.2-5.7-8.5-7.5c-5.1-1.8-8.5-3.6-8.5-8.7c0-3.3,2.6-7.8,9.5-7.8c4.4,0,7.6,2.2,7.6,2.2c0.2,0.1,0.5,0.4,0.2,0.9
		c-0.1,0.2-0.3,0.4-0.4,0.6c-0.3,0.4-0.5,0.5-1,0.2c-0.1-0.1-3.1-2.1-6.5-2.1c-5.4,0-7.4,3.3-7.4,5.9c0,3.7,2.9,5.4,7.3,6.8
		c6,2.1,9.9,4.2,9.9,9.3c0,4.4-4.5,7.8-9.6,7.8c-5.2,0-8.8-3.1-9.3-3.6C402.5,28.1,402.2,27.9,402.6,27.4z"/>
</g>
</svg>
