<?xml version="1.0" standalone="no"?>
<!DOCTYPE svg PUBLIC "-//W3C//DTD SVG 20010904//EN"
 "http://www.w3.org/TR/2001/REC-SVG-20010904/DTD/svg10.dtd">
<svg version="1.0" xmlns="http://www.w3.org/2000/svg"
 width="2920.000000pt" height="298.000000pt" viewBox="0 0 2920.000000 298.000000"
 preserveAspectRatio="xMidYMid meet">
<metadata>
Created by potrace 1.11, written by Peter Selinger 2001-2013
</metadata>
<g transform="translate(0.000000,298.000000) scale(0.100000,-0.100000)"
fill="#000000" stroke="none">
<path d="M15758 2598 l-3 -73 -102 -7 c-346 -23 -585 -147 -643 -335 -53 -172
0 -312 160 -418 94 -62 229 -115 429 -167 l161 -41 0 -374 0 -373 -27 0 c-69
0 -267 23 -357 41 -103 21 -249 72 -325 115 -24 13 -45 24 -47 24 -2 0 -4 -45
-4 -100 0 -117 -16 -102 160 -151 145 -40 318 -68 471 -76 l129 -6 0 -74 0
-73 70 0 70 0 0 73 0 73 126 13 c440 43 669 219 652 500 -6 96 -36 157 -109
226 -109 102 -226 157 -499 236 l-165 47 -3 347 -2 346 72 -6 c191 -16 345
-50 478 -104 41 -17 76 -31 78 -31 1 0 1 44 0 97 l-3 98 -144 32 c-153 34
-351 63 -432 63 l-49 0 0 75 0 75 -70 0 -69 0 -3 -72z m2 -558 c0 -181 -1
-330 -3 -330 -31 0 -340 100 -400 130 -136 66 -191 133 -190 232 2 128 104
218 298 263 64 15 182 30 263 34 l32 1 0 -330z m324 -566 c129 -37 257 -93
323 -142 23 -17 54 -53 70 -79 23 -40 28 -59 27 -113 -2 -188 -172 -290 -541
-325 l-63 -6 0 356 0 357 33 -7 c17 -4 85 -23 151 -41z"/>
<path d="M24920 2555 c-90 -17 -260 -75 -344 -117 -96 -48 -185 -109 -290
-197 l-96 -82 0 186 0 185 -90 0 -90 0 0 -935 0 -935 90 0 90 0 0 651 0 651
78 80 c293 302 696 436 1060 353 35 -8 65 -15 68 -15 2 0 4 38 4 84 l0 84 -32
6 c-76 15 -373 16 -448 1z"/>
<path d="M7357 2550 c-112 -13 -306 -47 -443 -78 l-119 -27 -3 -104 c-3 -96
-1 -103 15 -96 82 35 319 108 407 124 296 57 648 49 872 -20 165 -51 272 -130
322 -237 23 -49 27 -73 30 -173 l4 -115 -239 -18 c-833 -62 -1257 -171 -1464
-376 -94 -94 -121 -152 -127 -282 -13 -286 193 -469 582 -518 123 -16 408 -8
556 15 213 33 497 117 639 189 l51 26 0 -100 0 -100 85 0 85 0 0 678 c0 737 0
733 -57 852 -34 72 -149 186 -233 233 -81 45 -218 91 -335 112 -105 20 -503
29 -628 15z m1083 -1195 l0 -314 -67 -40 c-259 -153 -757 -256 -1078 -222
-247 26 -401 97 -472 218 -38 66 -45 181 -13 244 81 161 309 263 762 339 171
29 482 63 713 79 66 4 128 9 138 10 16 1 17 -20 17 -314z"/>
<path d="M18672 2548 c-41 -5 -124 -22 -185 -37 -467 -119 -739 -425 -764
-861 -10 -182 31 -381 109 -520 81 -146 231 -285 393 -365 193 -95 362 -134
620 -142 314 -10 555 34 852 156 l68 28 3 101 c1 56 0 102 -4 102 -3 0 -18 -9
-33 -19 -50 -36 -209 -111 -298 -140 -180 -60 -378 -86 -578 -77 -240 12 -407
51 -570 134 -128 65 -246 183 -303 302 -63 133 -76 200 -76 380 1 126 5 170
22 235 35 130 86 219 177 311 155 157 356 236 670 265 333 30 641 -33 910
-186 43 -25 80 -45 82 -45 2 0 3 45 3 100 l0 101 -47 20 c-169 73 -380 132
-552 154 -117 16 -385 18 -499 3z"/>
<path d="M21507 2550 c-112 -13 -306 -47 -443 -78 l-119 -27 -3 -104 c-3 -96
-1 -103 15 -96 82 35 319 108 407 124 296 57 648 49 872 -20 165 -51 272 -130
322 -237 23 -49 27 -73 30 -173 l4 -115 -239 -18 c-833 -62 -1257 -171 -1464
-376 -94 -94 -121 -152 -127 -282 -13 -286 193 -469 582 -518 123 -16 408 -8
556 15 213 33 497 117 639 189 l51 26 0 -100 0 -100 85 0 85 0 0 678 c0 737 0
733 -57 852 -34 72 -149 186 -233 233 -81 45 -218 91 -335 112 -105 20 -503
29 -628 15z m1083 -1195 l0 -314 -67 -40 c-259 -153 -757 -256 -1078 -222
-247 26 -401 97 -472 218 -38 66 -45 181 -13 244 81 161 309 263 762 339 171
29 482 63 713 79 66 4 128 9 138 10 16 1 17 -20 17 -314z"/>
<path d="M4355 2539 c-159 -23 -327 -82 -451 -158 -206 -127 -349 -318 -412
-550 -22 -84 -25 -115 -25 -251 0 -176 17 -259 78 -389 135 -283 389 -456 793
-538 127 -26 551 -26 707 0 110 19 298 64 388 93 l47 16 0 99 c0 54 -2 99 -4
99 -2 0 -42 -18 -89 -40 -94 -44 -255 -90 -412 -116 -120 -21 -419 -24 -540
-6 -269 40 -463 128 -598 271 -72 76 -107 133 -143 229 -22 56 -54 191 -54
223 0 5 402 9 995 9 l995 0 0 63 c0 83 -24 236 -50 322 -38 121 -105 238 -187
325 -89 95 -145 137 -249 189 -168 84 -357 122 -590 120 -77 -1 -166 -5 -199
-10z m367 -150 c309 -33 539 -174 650 -396 42 -82 64 -156 83 -275 l6 -38
-911 0 -910 0 6 43 c10 71 59 203 102 274 58 98 131 175 226 238 205 136 448
186 748 154z"/>
<path d="M27105 2539 c-159 -23 -327 -82 -451 -158 -206 -127 -349 -318 -412
-550 -22 -84 -25 -115 -25 -251 0 -176 17 -259 78 -389 135 -283 389 -456 793
-538 127 -26 551 -26 707 0 110 19 298 64 388 93 l47 16 0 99 c0 54 -2 99 -4
99 -2 0 -42 -18 -89 -40 -94 -44 -255 -90 -412 -116 -120 -21 -419 -24 -540
-6 -269 40 -463 128 -598 271 -72 76 -107 133 -143 229 -22 56 -54 191 -54
223 0 5 402 9 995 9 l995 0 0 63 c0 83 -24 236 -50 322 -38 121 -105 238 -187
325 -89 95 -145 137 -249 189 -168 84 -357 122 -590 120 -77 -1 -166 -5 -199
-10z m367 -150 c309 -33 539 -174 650 -396 42 -82 64 -156 83 -275 l6 -38
-911 0 -910 0 6 43 c10 71 59 203 102 274 58 98 131 175 226 238 205 136 448
186 748 154z"/>
<path d="M310 1595 l0 -935 90 0 90 0 0 455 0 455 830 0 830 0 0 -455 0 -455
90 0 90 0 0 935 0 935 -90 0 -90 0 0 -405 0 -405 -830 0 -830 0 0 405 0 405
-90 0 -90 0 0 -935z"/>
<path d="M9862 1818 c4 -701 4 -714 26 -792 27 -98 56 -149 120 -208 83 -78
179 -117 352 -143 74 -12 211 -15 618 -15 l522 0 0 74 0 74 -532 5 c-523 5
-578 8 -693 41 -121 36 -203 126 -224 250 -7 41 -11 296 -11 744 l0 682 -90 0
-91 0 3 -712z"/>
<path d="M12210 2455 l0 -75 425 0 425 0 0 -860 0 -860 85 0 85 0 0 860 0 860
425 0 425 0 0 75 0 75 -935 0 -935 0 0 -75z"/>
</g>
</svg>
