<?xml version="1.0" encoding="utf-8"?>
<!-- Generator: Adobe Illustrator 18.0.0, SVG Export Plug-In . SVG Version: 6.00 Build 0)  -->
<!DOCTYPE svg PUBLIC "-//W3C//DTD SVG 1.1 Basic//EN" "http://www.w3.org/Graphics/SVG/1.1/DTD/svg11-basic.dtd">
<svg version="1.1" baseProfile="basic" id="Layer_1"
	 xmlns="http://www.w3.org/2000/svg" xmlns:xlink="http://www.w3.org/1999/xlink" x="0px" y="0px" viewBox="0 0 245 21"
	 xml:space="preserve">
<g>
	<path fill="#FFFFFF" d="M8.7,0.4c0-0.1,0.1-0.1,0.1-0.1h0.1C9,0.3,9,0.3,9.1,0.4l8.5,19.9c0,0.1,0,0.1-0.1,0.2l-0.3,0.1
		c-0.1,0-0.1,0-0.1-0.1l-2.5-5.9H3.1l-2.5,5.9c0,0.1-0.1,0.1-0.1,0.1l-0.3-0.1c-0.1,0-0.1-0.1-0.1-0.2L8.7,0.4z M14.3,14.1L8.9,1.3
		L3.3,14.1H14.3z"/>
	<path fill="#FFFFFF" d="M32.7,1.1c0-0.1,0.1-0.2,0.2-0.2h5.8c3.5,0,6.4,2.9,6.4,6.3c0,3.5-2.9,6.4-6.4,6.4h-5.5v6.7
		c0,0.1-0.1,0.2-0.2,0.2h-0.1c-0.1,0-0.2-0.1-0.2-0.2V1.1z M38.7,13.1c3.2,0,5.9-2.7,5.9-5.9c0-3.2-2.7-5.8-5.9-5.8h-5.5v11.7H38.7z
		"/>
	<path fill="#FFFFFF" d="M61.1,1.1c0-0.1,0.1-0.2,0.2-0.2h5.8c3.5,0,6.4,2.9,6.4,6.3c0,3.5-2.9,6.4-6.4,6.4h-5.5v6.7
		c0,0.1-0.1,0.2-0.2,0.2h-0.1c-0.1,0-0.2-0.1-0.2-0.2V1.1z M67.2,13.1c3.2,0,5.9-2.7,5.9-5.9c0-3.2-2.7-5.8-5.9-5.8h-5.5v11.7H67.2z
		"/>
	<path fill="#FFFFFF" d="M94.7,0.4c0-0.1,0.1-0.1,0.1-0.1h0.1c0.1,0,0.1,0.1,0.1,0.1l8.5,19.9c0,0.1,0,0.1-0.1,0.2l-0.3,0.1
		c-0.1,0-0.1,0-0.1-0.1l-2.5-5.9H89l-2.5,5.9c0,0.1-0.1,0.1-0.1,0.1l-0.3-0.1c-0.1,0-0.1-0.1-0.1-0.2L94.7,0.4z M100.3,14.1
		L94.8,1.3l-5.6,12.8H100.3z"/>
	<path fill="#FFFFFF" d="M118.6,1.1c0-0.1,0.1-0.2,0.2-0.2h6.6c3.5,0,6.4,2.5,6.4,6c0,3.1-2.2,5.5-5.1,6l4.4,7.3
		c0.1,0.1,0.1,0.2,0,0.2l-0.3,0.1c-0.1,0-0.1,0-0.2-0.1l-4.5-7.5c-0.3,0-0.5,0-0.7,0h-6.4v7.3c0,0.1-0.1,0.2-0.2,0.2h-0.1
		c-0.1,0-0.2-0.1-0.2-0.2V1.1z M125.5,12.5c3.2,0,5.9-2.4,5.9-5.7c0-3.2-2.7-5.5-5.9-5.5h-6.4v11.1H125.5z"/>
	<path fill="#FFFFFF" d="M154.2,0.4c0-0.1,0.1-0.1,0.1-0.1h0.1c0.1,0,0.1,0.1,0.1,0.1l8.5,19.9c0,0.1,0,0.1-0.1,0.2l-0.3,0.1
		c-0.1,0-0.1,0-0.1-0.1l-2.5-5.9h-11.5l-2.5,5.9c0,0.1-0.1,0.1-0.1,0.1l-0.3-0.1c-0.1,0-0.1-0.1-0.1-0.2L154.2,0.4z M159.8,14.1
		l-5.4-12.8l-5.6,12.8H159.8z"/>
	<path fill="#FFFFFF" d="M180.2,1.4h-5.8c-0.1,0-0.2-0.1-0.2-0.2V1.1c0-0.1,0.1-0.2,0.2-0.2h12.2c0.1,0,0.2,0.1,0.2,0.2v0.1
		c0,0.1-0.1,0.2-0.2,0.2h-5.9v18.9c0,0.1-0.1,0.2-0.2,0.2h-0.1c-0.1,0-0.2-0.1-0.2-0.2V1.4z"/>
	<path fill="#FFFFFF" d="M201.6,1.1c0-0.1,0.1-0.2,0.2-0.2h0.1c0.1,0,0.2,0.1,0.2,0.2v12.3c0,4,2.5,6.8,6.7,6.8
		c4.2,0,6.8-2.8,6.8-6.8V1.1c0-0.1,0.1-0.2,0.2-0.2h0.1c0.1,0,0.2,0.1,0.2,0.2v12.3c0,4.3-2.8,7.3-7.3,7.3c-4.5,0-7.2-3-7.2-7.3V1.1
		z"/>
	<path fill="#FFFFFF" d="M232.7,18.2l0.1-0.1c0.1-0.1,0.2-0.1,0.3,0c0.4,0.3,2.4,2.2,5.6,2.2c3,0,5.7-2,5.7-4.4c0-3.1-2.4-4.1-6-5.1
		c-3.4-0.9-5.9-2-5.9-5.2c0-2.3,1.7-4.9,6.1-4.9c2.8,0,4.8,1.4,4.8,1.4c0.1,0.1,0.1,0.1,0.1,0.2l-0.1,0.2c-0.1,0.1-0.1,0.1-0.2,0.1
		c0,0-2-1.4-4.6-1.4c-4.1,0-5.6,2.4-5.6,4.4c0,2.9,2.2,3.9,5.5,4.7c3.9,1.1,6.4,2.4,6.4,5.6c0,2.7-2.9,4.9-6.2,4.9
		c-3.3,0-5.6-2-6-2.3C232.7,18.3,232.7,18.2,232.7,18.2z"/>
</g>
</svg>
